<svg width="24" height="24" viewBox="0 0 24 24" fill="none" xmlns="http://www.w3.org/2000/svg">
<g clip-path="url(#clip0_1663_14607)">
<path d="M12 24C18.6274 24 24 18.6274 24 12C24 5.37258 18.6274 0 12 0C5.37258 0 0 5.37258 0 12C0 18.6274 5.37258 24 12 24Z" fill="#F0F0F0"/>
<path d="M24.0004 11.9997C24.0004 7.24218 21.2317 3.13143 17.2178 1.19043V22.8089C21.2317 20.868 24.0004 16.7572 24.0004 11.9997Z" fill="#D80027"/>
<path d="M0 11.9997C0 16.7572 2.76867 20.868 6.78263 22.809V1.19043C2.76867 3.13143 0 7.24218 0 11.9997Z" fill="#D80027"/>
<path d="M14.087 13.5649L16.174 12.5214L15.1305 11.9997V10.9562L13.0435 11.9997L14.087 9.91274H13.0435L12.0001 8.34753L10.9566 9.91274H9.91309L10.9566 11.9997L8.86961 10.9562V11.9997L7.82617 12.5214L9.91309 13.5649L9.39138 14.6084H11.4783V16.1736H12.5218V14.6084H14.6088L14.087 13.5649Z" fill="#D80027"/>
</g>
<defs>
<clipPath id="clip0_1663_14607">
<rect width="24" height="24" fill="white"/>
</clipPath>
</defs>
</svg>
